<?xml version="1.0" standalone="no"?>
<!DOCTYPE svg PUBLIC "-//W3C//DTD SVG 20010904//EN"
 "http://www.w3.org/TR/2001/REC-SVG-20010904/DTD/svg10.dtd">
<svg version="1.0" xmlns="http://www.w3.org/2000/svg"
 width="2406.000000pt" height="1325.000000pt" viewBox="0 0 2406.000000 1325.000000"
 preserveAspectRatio="xMidYMid meet">
<metadata>
Created by potrace 1.16, written by Peter Selinger 2001-2019
</metadata>
<g transform="translate(0.000000,1325.000000) scale(0.100000,-0.100000)"
fill="#000000" stroke="none">
<path d="M7216 9878 c-3 -18 -10 -152 -16 -298 -6 -146 -13 -311 -17 -366 l-6
-102 -61 45 c-157 116 -308 163 -551 170 -139 5 -171 2 -247 -16 -403 -96
-656 -494 -753 -1181 -8 -58 -20 -196 -26 -308 -12 -220 -2 -507 26 -717 72
-532 108 -883 126 -1245 14 -265 8 -405 -21 -515 -23 -89 -103 -263 -124 -271
-8 -3 -56 9 -107 26 -229 77 -440 110 -583 91 -109 -15 -160 -33 -221 -79
-150 -113 -150 -350 1 -438 87 -51 148 -66 295 -71 206 -8 359 30 513 127 l65
41 128 -46 c277 -101 497 -141 717 -132 295 12 547 125 782 349 52 50 96 89
98 87 2 -2 8 -26 15 -54 18 -74 84 -204 130 -256 115 -131 301 -172 489 -108
78 26 169 93 202 147 14 23 28 42 31 42 4 0 18 -17 33 -39 69 -100 204 -152
332 -130 75 13 163 62 215 119 20 22 39 40 43 40 3 0 6 -47 6 -105 l0 -105
140 0 140 0 0 753 c0 762 1 777 34 777 6 0 24 -25 40 -55 61 -118 151 -177
278 -183 74 -4 78 -5 73 -26 -34 -151 -45 -502 -21 -684 27 -207 92 -370 184
-465 20 -21 71 -55 111 -75 72 -36 79 -37 180 -37 84 0 120 5 173 23 82 29
165 87 203 144 16 23 31 45 33 48 2 3 10 -4 18 -15 8 -11 32 -38 54 -61 156
-159 423 -120 557 82 20 30 39 54 42 54 3 0 20 -23 36 -51 120 -204 398 -285
619 -181 123 58 258 189 372 361 l49 74 3 -241 2 -242 145 0 145 0 0 653 c0
621 1 658 20 733 56 220 184 344 355 344 56 0 103 -24 136 -70 76 -104 62
-388 -41 -833 -111 -475 -111 -704 -2 -821 73 -78 227 -101 330 -50 162 81
274 380 305 812 l3 42 -78 0 -78 0 0 -114 c0 -202 -37 -410 -92 -521 -76 -152
-223 -169 -244 -29 -16 107 8 283 80 603 60 261 70 347 71 556 0 153 -4 202
-18 254 -57 202 -171 309 -340 319 -63 4 -89 0 -140 -18 -71 -26 -148 -73
-206 -126 l-41 -36 0 1416 0 1416 -155 0 -155 0 0 -1785 0 -1786 -36 -97
c-150 -400 -396 -702 -573 -702 -145 0 -221 174 -252 571 -35 461 31 868 166
1026 110 129 297 74 334 -98 6 -27 11 -131 11 -229 l0 -180 55 0 55 0 0 575 0
576 -67 -3 -68 -3 -3 -262 -2 -263 -53 34 c-112 74 -259 86 -367 31 -192 -98
-344 -423 -372 -795 -10 -148 -5 -502 10 -575 19 -97 -125 -349 -213 -371 -43
-11 -74 11 -103 74 l-27 57 0 815 0 815 -123 3 -123 3 -13 -33 c-7 -18 -16
-42 -20 -53 -7 -19 -9 -19 -28 8 -45 62 -143 98 -268 99 -63 0 -89 -5 -132
-24 -138 -64 -270 -244 -348 -476 -32 -96 -39 -101 -107 -83 -54 15 -109 74
-134 146 -26 72 -36 236 -21 340 5 39 9 71 8 72 0 0 -48 -37 -106 -83 -58 -46
-108 -84 -112 -84 -5 0 -8 38 -8 85 l0 85 -140 0 -140 0 0 -664 0 -664 -36
-103 c-67 -192 -148 -317 -217 -334 -59 -15 -96 22 -121 120 -14 51 -16 168
-16 852 l0 793 -123 0 -122 0 -18 -51 -18 -51 -35 36 c-62 64 -128 86 -255 87
-71 1 -89 -3 -143 -30 -121 -59 -249 -225 -316 -408 -83 -228 -113 -430 -109
-739 3 -243 10 -222 -108 -335 -126 -122 -261 -191 -438 -224 -129 -25 -361
-16 -505 18 -107 26 -297 89 -382 127 l-48 21 45 82 c129 239 179 501 179 942
0 295 -14 451 -75 870 -86 585 -92 664 -79 968 28 621 135 989 347 1187 110
103 246 150 397 136 241 -22 401 -159 485 -416 47 -142 51 -208 51 -822 l0
-578 176 0 175 0 -4 628 c-3 589 -5 632 -24 718 -12 50 -26 101 -32 112 -8 14
-11 185 -11 556 l0 536 -65 0 -64 0 -5 -32z m740 -3507 c44 -27 72 -78 90
-162 13 -63 13 -140 4 -603 -12 -555 -17 -617 -60 -709 -28 -60 -98 -124 -145
-133 -121 -22 -247 77 -298 236 -64 199 -61 538 8 870 75 360 258 588 401 501z
m2205 -4 c41 -27 75 -92 90 -171 12 -69 -5 -1094 -21 -1174 -23 -123 -88 -223
-163 -251 -101 -38 -228 33 -292 162 -84 175 -98 505 -35 857 39 213 114 412
191 504 75 89 163 118 230 73z m-5240 -1383 c88 -22 393 -128 409 -141 10 -9
-57 -55 -135 -93 -103 -49 -177 -64 -285 -57 -148 11 -229 47 -266 120 -20 38
-14 109 13 146 44 59 106 65 264 25z"/>
<path d="M17270 9359 l0 -382 -80 86 c-175 187 -329 267 -513 267 -202 0 -381
-90 -564 -284 -396 -418 -612 -1222 -613 -2276 0 -1256 311 -2051 858 -2191
273 -69 557 49 803 334 58 66 59 67 64 40 24 -120 67 -214 128 -280 55 -60
107 -85 190 -91 60 -4 73 -2 131 27 76 37 156 115 211 205 22 36 42 65 45 66
3 0 21 -30 40 -66 61 -115 150 -189 265 -218 183 -48 409 29 496 170 l21 35
57 -60 c77 -83 146 -114 252 -114 69 0 88 5 143 32 147 72 254 260 300 523 15
91 11 112 -28 122 -47 12 -73 -8 -86 -66 -21 -88 -70 -218 -112 -300 -73 -140
-159 -199 -214 -147 -62 58 -59 16 -62 922 l-3 828 -126 -3 -126 -3 -15 -45
c-8 -25 -16 -47 -18 -49 -1 -2 -17 13 -33 32 -78 89 -283 117 -405 56 -150
-75 -290 -293 -360 -561 -40 -153 -57 -306 -62 -538 -6 -314 -29 -489 -80
-600 -31 -68 -57 -96 -101 -111 -41 -13 -73 4 -100 54 -17 30 -18 90 -23 817
-5 812 -6 818 -46 834 -8 3 -74 6 -145 6 -116 0 -131 -2 -149 -20 -21 -21 -24
-122 -25 -895 0 -130 -10 -174 -68 -313 -123 -290 -347 -464 -602 -465 -121 0
-184 24 -270 105 -140 131 -235 346 -304 687 -58 287 -80 531 -88 971 -12 734
60 1438 193 1878 142 468 323 700 581 743 239 39 417 -107 498 -412 49 -185
57 -274 64 -740 6 -411 7 -438 25 -458 18 -19 30 -21 158 -21 135 0 140 1 164
25 l25 25 -3 479 -3 480 -52 101 -53 101 0 519 0 520 -90 0 -90 0 0 -381z
m1362 -3005 c16 -16 40 -49 52 -74 21 -44 21 -51 18 -595 -2 -563 -8 -667 -42
-759 -37 -99 -117 -166 -197 -166 -54 0 -131 40 -177 90 -103 114 -149 348
-126 642 35 463 146 773 315 880 44 28 116 20 157 -18z"/>
<path d="M21010 9230 l0 -392 49 -56 c408 -475 720 -1083 841 -1638 80 -370
91 -806 29 -1174 -103 -618 -376 -1189 -841 -1761 l-78 -97 2 -386 3 -386 120
102 c165 142 463 435 589 581 570 658 895 1331 991 2052 9 66 19 203 22 305
36 1127 -526 2215 -1636 3163 l-91 78 0 -391z"/>
<path d="M17290 7069 c-32 -13 -78 -56 -96 -91 -18 -34 -18 -109 0 -151 40
-97 175 -135 263 -74 107 73 95 250 -20 306 -46 22 -106 26 -147 10z"/>
<path d="M14730 6715 c0 -146 -3 -265 -6 -265 -3 0 -19 9 -34 20 -16 12 -55
33 -87 48 -51 23 -70 27 -153 26 -74 0 -107 -5 -148 -22 -116 -48 -246 -162
-290 -252 -45 -95 -47 -218 -6 -342 23 -69 106 -190 153 -223 l40 -27 -67 -33
c-231 -112 -354 -312 -339 -552 17 -240 165 -432 394 -509 71 -24 88 -26 198
-22 99 4 133 10 195 33 133 49 255 130 383 253 l57 56 0 338 0 338 25 0 c24 0
25 2 25 75 l0 75 -35 0 -35 0 0 65 0 65 -73 0 -73 0 -24 -56 c-34 -83 -61 -97
-178 -90 -279 17 -430 132 -461 352 -19 130 11 226 91 301 57 51 104 68 198
67 60 0 87 -5 135 -27 74 -34 135 -92 166 -158 22 -47 24 -49 53 -43 17 3 34
8 39 11 4 2 7 175 7 384 l0 379 -75 0 -75 0 0 -265z m-19 -1155 c91 -17 89
-10 89 -321 0 -246 -2 -273 -21 -323 -88 -236 -449 -285 -633 -85 -61 65 -84
121 -92 219 -7 77 14 187 50 266 50 110 167 203 299 239 61 16 232 19 308 5z"/>
<path d="M19657 4966 c-48 -18 -74 -41 -98 -88 -76 -148 80 -308 234 -240 126
56 139 239 23 312 -44 27 -111 34 -159 16z"/>
</g>
</svg>
